# xmcd CD database file
# Copyright (C) 1995-1998 Ti Kan
#
# Track frame offsets:
#	150
#	22102
#	42277
#	57745
#	73677
#	90862
#	99802
#	117922
#	138860
#	154867
#	170665
#	214497
#
# Disc length: 3170 seconds
#
# Revision: 2
# Processed by: cddbd v1.4PL0 Copyright (c) Steve Scherf et al.
# Submitted via: CDex 1.30Release
#
DISCID=a60c600c
DTITLE=Billy Bob Thornton - Private Radio
DYEAR=2001
DGENRE=Country
TTITLE0=Dark And Mad
TTITLE1=Forever
TTITLE2=Angelina
TTITLE3=Starlight Lounge
TTITLE4=Walk Of Shame
TTITLE5=Smoking In Bed
TTITLE6=Your Blue Shadow
TTITLE7=That Mountain
TTITLE8=He Was A Friend Of MIne
TTITLE9=Private Radio
TTITLE10=Beauty At The Back Door
TTITLE11=Lost Highway
EXTD=YEAR: 2001 ID3G:   2
EXTT0=
EXTT1=
EXTT2=
EXTT3=
EXTT4=
EXTT5=
EXTT6=
EXTT7=
EXTT8=
EXTT9=
EXTT10=
EXTT11=
PLAYORDER=
